<svg width="984.0" height="1456.0" viewBox="0 0 984.0 1456.0" xmlns="http://www.w3.org/2000/svg">
<style>/* font and background color specifications */
svg {
    font-family: SFMono-Regular,Consolas,Liberation Mono,Menlo,monospace;
    font-size: 14px;
    font-kerning: normal;
    text-rendering: optimizeLegibility;
    fill: #24292e;
}

/* default key styling */
rect {
    fill: #f6f8fa;
    stroke: #c9cccf;
    stroke-width: 1;
}

/* color accent for combo boxes */
rect.combo {
    fill: #cdf;
}

/* color accent for held keys */
rect.held, rect.combo.held {
    fill: #fdd;
}

/* color accent for ghost (optional) keys */
rect.ghost, rect.combo.ghost {
    fill: #ddd;
}

text {
    text-anchor: middle;
    dominant-baseline: middle;
}

/* styling for layer labels */
text.label {
    font-weight: bold;
    text-anchor: start;
    stroke: white;
    stroke-width: 2;
    paint-order: stroke;
}

/* styling for combo tap, and key hold/shifted label text */
text.combo, text.hold, text.shifted {
    font-size: 11px;
}

text.hold {
    text-anchor: middle;
    dominant-baseline: auto;
}

text.shifted {
    text-anchor: middle;
    dominant-baseline: hanging;
}

/* styling for hold/shifted label text in combo box */
text.combo.hold, text.combo.shifted {
    font-size: 8px;
}

/* styling for combo dendrons */
path {
    stroke-width: 1;
    stroke: gray;
    fill: none;
}
</style>
<g class="layer-L0">
<text x="30.0" y="28.0" class="label">L0:</text>
<rect rx="6.0" ry="6.0" x="32.0" y="100.0" width="52.0" height="52.0" class=""/>
<text x="58.0" y="126.0" class="tap">TAB</text>
<rect rx="6.0" ry="6.0" x="88.0" y="100.0" width="52.0" height="52.0" class=""/>
<text x="114.0" y="126.0" class="tap">Q</text>
<rect rx="6.0" ry="6.0" x="144.0" y="72.0" width="52.0" height="52.0" class=""/>
<text x="170.0" y="98.0" class="tap">W</text>
<rect rx="6.0" ry="6.0" x="200.0" y="58.0" width="52.0" height="52.0" class=""/>
<text x="226.0" y="84.0" class="tap">E</text>
<rect rx="6.0" ry="6.0" x="256.0" y="72.0" width="52.0" height="52.0" class=""/>
<text x="282.0" y="98.0" class="tap">R</text>
<rect rx="6.0" ry="6.0" x="312.0" y="86.0" width="52.0" height="52.0" class=""/>
<text x="338.0" y="112.0" class="tap">T</text>
<rect rx="6.0" ry="6.0" x="620.0" y="86.0" width="52.0" height="52.0" class=""/>
<text x="646.0" y="112.0" class="tap">Y</text>
<rect rx="6.0" ry="6.0" x="676.0" y="72.0" width="52.0" height="52.0" class=""/>
<text x="702.0" y="98.0" class="tap">U</text>
<rect rx="6.0" ry="6.0" x="732.0" y="58.0" width="52.0" height="52.0" class=""/>
<text x="758.0" y="84.0" class="tap">I</text>
<rect rx="6.0" ry="6.0" x="788.0" y="72.0" width="52.0" height="52.0" class=""/>
<text x="814.0" y="98.0" class="tap">O</text>
<rect rx="6.0" ry="6.0" x="844.0" y="100.0" width="52.0" height="52.0" class=""/>
<text x="870.0" y="126.0" class="tap">P</text>
<rect rx="6.0" ry="6.0" x="900.0" y="100.0" width="52.0" height="52.0" class=""/>
<text x="926.0" y="126.0" class="tap">BSPC</text>
<rect rx="6.0" ry="6.0" x="32.0" y="156.0" width="52.0" height="52.0" class=""/>
<text x="58.0" y="182.0" class="tap">ESC</text>
<text x="58.0" y="206.0" class="hold">ALL</text>
<rect rx="6.0" ry="6.0" x="88.0" y="156.0" width="52.0" height="52.0" class=""/>
<text x="114.0" y="182.0" class="tap">A</text>
<rect rx="6.0" ry="6.0" x="144.0" y="128.0" width="52.0" height="52.0" class=""/>
<text x="170.0" y="154.0" class="tap">S</text>
<rect rx="6.0" ry="6.0" x="200.0" y="114.0" width="52.0" height="52.0" class=""/>
<text x="226.0" y="140.0" class="tap">D</text>
<rect rx="6.0" ry="6.0" x="256.0" y="128.0" width="52.0" height="52.0" class=""/>
<text x="282.0" y="154.0" class="tap">F</text>
<rect rx="6.0" ry="6.0" x="312.0" y="142.0" width="52.0" height="52.0" class=""/>
<text x="338.0" y="168.0" class="tap">G</text>
<rect rx="6.0" ry="6.0" x="620.0" y="142.0" width="52.0" height="52.0" class=""/>
<text x="646.0" y="168.0" class="tap">H</text>
<rect rx="6.0" ry="6.0" x="676.0" y="128.0" width="52.0" height="52.0" class=""/>
<text x="702.0" y="154.0" class="tap">J</text>
<rect rx="6.0" ry="6.0" x="732.0" y="114.0" width="52.0" height="52.0" class=""/>
<text x="758.0" y="140.0" class="tap">K</text>
<rect rx="6.0" ry="6.0" x="788.0" y="128.0" width="52.0" height="52.0" class=""/>
<text x="814.0" y="154.0" class="tap">L</text>
<rect rx="6.0" ry="6.0" x="844.0" y="156.0" width="52.0" height="52.0" class=""/>
<text x="870.0" y="182.0" class="tap">;</text>
<rect rx="6.0" ry="6.0" x="900.0" y="156.0" width="52.0" height="52.0" class=""/>
<text x="926.0" y="182.0" class="tap">&#x27;</text>
<rect rx="6.0" ry="6.0" x="32.0" y="212.0" width="52.0" height="52.0" class=""/>
<text x="58.0" y="238.0" class="tap">LSFT</text>
<text x="58.0" y="262.0" class="hold">sticky</text>
<rect rx="6.0" ry="6.0" x="88.0" y="212.0" width="52.0" height="52.0" class=""/>
<text x="114.0" y="238.0" class="tap">Z</text>
<rect rx="6.0" ry="6.0" x="144.0" y="184.0" width="52.0" height="52.0" class=""/>
<text x="170.0" y="210.0" class="tap">X</text>
<rect rx="6.0" ry="6.0" x="200.0" y="170.0" width="52.0" height="52.0" class=""/>
<text x="226.0" y="196.0" class="tap">C</text>
<rect rx="6.0" ry="6.0" x="256.0" y="184.0" width="52.0" height="52.0" class=""/>
<text x="282.0" y="210.0" class="tap">V</text>
<rect rx="6.0" ry="6.0" x="312.0" y="198.0" width="52.0" height="52.0" class=""/>
<text x="338.0" y="224.0" class="tap">B</text>
<rect rx="6.0" ry="6.0" x="368.0" y="226.0" width="52.0" height="52.0" class=""/>
<text x="394.0" y="252.0" class="tap">
<tspan x="394.0" dy="-1.2em">TD(TD</tspan><tspan x="394.0" dy="1.2em">LCTL</tspan><tspan x="394.0" dy="1.2em">SPC)</tspan></text>
<rect rx="6.0" ry="6.0" x="424.0" y="240.0" width="52.0" height="52.0" class=""/>
<text x="450.0" y="266.0" class="tap">
<tspan x="450.0" dy="-1.2em">TD(TD</tspan><tspan x="450.0" dy="1.2em">LPRN</tspan><tspan x="450.0" dy="1.2em">LBRC)</tspan></text>
<rect rx="6.0" ry="6.0" x="508.0" y="240.0" width="52.0" height="52.0" class=""/>
<text x="534.0" y="266.0" class="tap">
<tspan x="534.0" dy="-1.2em">TD(TD</tspan><tspan x="534.0" dy="1.2em">RPRN</tspan><tspan x="534.0" dy="1.2em">RBRC)</tspan></text>
<rect rx="6.0" ry="6.0" x="564.0" y="226.0" width="52.0" height="52.0" class=""/>
<text x="590.0" y="252.0" class="tap">-</text>
<rect rx="6.0" ry="6.0" x="620.0" y="198.0" width="52.0" height="52.0" class=""/>
<text x="646.0" y="224.0" class="tap">N</text>
<rect rx="6.0" ry="6.0" x="676.0" y="184.0" width="52.0" height="52.0" class=""/>
<text x="702.0" y="210.0" class="tap">M</text>
<rect rx="6.0" ry="6.0" x="732.0" y="170.0" width="52.0" height="52.0" class=""/>
<text x="758.0" y="196.0" class="tap">,</text>
<rect rx="6.0" ry="6.0" x="788.0" y="184.0" width="52.0" height="52.0" class=""/>
<text x="814.0" y="210.0" class="tap">.</text>
<rect rx="6.0" ry="6.0" x="844.0" y="212.0" width="52.0" height="52.0" class=""/>
<text x="870.0" y="238.0" class="tap">/</text>
<rect rx="6.0" ry="6.0" x="900.0" y="212.0" width="52.0" height="52.0" class=""/>
<text x="926.0" y="238.0" class="tap">\</text>
<rect rx="6.0" ry="6.0" x="172.0" y="240.0" width="52.0" height="52.0" class=""/>
<text x="198.0" y="266.0" class="tap">MUTE</text>
<rect rx="6.0" ry="6.0" x="228.0" y="240.0" width="52.0" height="52.0" class=""/>
<text x="254.0" y="266.0" class="tap">LGUI</text>
<rect rx="6.0" ry="6.0" x="284.0" y="254.0" width="52.0" height="52.0" class=""/>
<text x="310.0" y="280.0" class="tap">LALT</text>
<rect rx="6.0" ry="6.0" x="340.0" y="282.0" width="52.0" height="52.0" class=""/>
<text x="366.0" y="308.0" class="tap">ENT</text>
<rect rx="6.0" ry="6.0" x="396.0" y="296.0" width="52.0" height="52.0" class=""/>
<text x="422.0" y="322.0" class="tap">L2</text>
<rect rx="6.0" ry="6.0" x="536.0" y="296.0" width="52.0" height="52.0" class=""/>
<text x="562.0" y="322.0" class="tap">L1</text>
<rect rx="6.0" ry="6.0" x="592.0" y="282.0" width="52.0" height="52.0" class=""/>
<text x="618.0" y="308.0" class="tap">SPC</text>
<rect rx="6.0" ry="6.0" x="648.0" y="254.0" width="52.0" height="52.0" class=""/>
<text x="674.0" y="280.0" class="tap">RCTL</text>
<rect rx="6.0" ry="6.0" x="704.0" y="240.0" width="52.0" height="52.0" class=""/>
<text x="730.0" y="266.0" class="tap">DEL</text>
<rect rx="6.0" ry="6.0" x="760.0" y="240.0" width="52.0" height="52.0" class=""/>
<text x="786.0" y="266.0" class="tap">MPLY</text>
</g>
<g class="layer-L1">
<text x="30.0" y="378.0" class="label">L1:</text>
<rect rx="6.0" ry="6.0" x="32.0" y="450.0" width="52.0" height="52.0" class=""/>
<text x="58.0" y="476.0" class="tap">`</text>
<rect rx="6.0" ry="6.0" x="88.0" y="450.0" width="52.0" height="52.0" class=""/>
<text x="114.0" y="476.0" class="tap">1</text>
<rect rx="6.0" ry="6.0" x="144.0" y="422.0" width="52.0" height="52.0" class=""/>
<text x="170.0" y="448.0" class="tap">2</text>
<rect rx="6.0" ry="6.0" x="200.0" y="408.0" width="52.0" height="52.0" class=""/>
<text x="226.0" y="434.0" class="tap">3</text>
<rect rx="6.0" ry="6.0" x="256.0" y="422.0" width="52.0" height="52.0" class=""/>
<text x="282.0" y="448.0" class="tap">4</text>
<rect rx="6.0" ry="6.0" x="312.0" y="436.0" width="52.0" height="52.0" class=""/>
<text x="338.0" y="462.0" class="tap">5</text>
<rect rx="6.0" ry="6.0" x="620.0" y="436.0" width="52.0" height="52.0" class=""/>
<text x="646.0" y="462.0" class="tap">6</text>
<rect rx="6.0" ry="6.0" x="676.0" y="422.0" width="52.0" height="52.0" class=""/>
<text x="702.0" y="448.0" class="tap">7</text>
<rect rx="6.0" ry="6.0" x="732.0" y="408.0" width="52.0" height="52.0" class=""/>
<text x="758.0" y="434.0" class="tap">8</text>
<rect rx="6.0" ry="6.0" x="788.0" y="422.0" width="52.0" height="52.0" class=""/>
<text x="814.0" y="448.0" class="tap">9</text>
<rect rx="6.0" ry="6.0" x="844.0" y="450.0" width="52.0" height="52.0" class=""/>
<text x="870.0" y="476.0" class="tap">0</text>
<rect rx="6.0" ry="6.0" x="900.0" y="450.0" width="52.0" height="52.0" class=""/>
<text x="926.0" y="476.0" class="tap">BSPC</text>
<rect rx="6.0" ry="6.0" x="32.0" y="506.0" width="52.0" height="52.0" class=""/>
<text x="58.0" y="532.0" class="tap">
<tspan x="58.0" dy="-0.6em">QK</tspan><tspan x="58.0" dy="1.2em">GESC</tspan></text>
<rect rx="6.0" ry="6.0" x="88.0" y="506.0" width="52.0" height="52.0" class=""/>
<text x="114.0" y="532.0" class="tap">!</text>
<rect rx="6.0" ry="6.0" x="144.0" y="478.0" width="52.0" height="52.0" class=""/>
<text x="170.0" y="504.0" class="tap">@</text>
<rect rx="6.0" ry="6.0" x="200.0" y="464.0" width="52.0" height="52.0" class=""/>
<text x="226.0" y="490.0" class="tap">#</text>
<rect rx="6.0" ry="6.0" x="256.0" y="478.0" width="52.0" height="52.0" class=""/>
<text x="282.0" y="504.0" class="tap">$</text>
<rect rx="6.0" ry="6.0" x="312.0" y="492.0" width="52.0" height="52.0" class=""/>
<text x="338.0" y="518.0" class="tap">%</text>
<rect rx="6.0" ry="6.0" x="620.0" y="492.0" width="52.0" height="52.0" class=""/>
<text x="646.0" y="518.0" class="tap">^</text>
<rect rx="6.0" ry="6.0" x="676.0" y="478.0" width="52.0" height="52.0" class=""/>
<text x="702.0" y="504.0" class="tap">&amp;</text>
<rect rx="6.0" ry="6.0" x="732.0" y="464.0" width="52.0" height="52.0" class=""/>
<text x="758.0" y="490.0" class="tap">*</text>
<rect rx="6.0" ry="6.0" x="788.0" y="478.0" width="52.0" height="52.0" class=""/>
<text x="814.0" y="504.0" class="tap">(</text>
<rect rx="6.0" ry="6.0" x="844.0" y="506.0" width="52.0" height="52.0" class=""/>
<text x="870.0" y="532.0" class="tap">)</text>
<rect rx="6.0" ry="6.0" x="900.0" y="506.0" width="52.0" height="52.0" class=""/>
<text x="926.0" y="532.0" class="tap">-</text>
<rect rx="6.0" ry="6.0" x="32.0" y="562.0" width="52.0" height="52.0" class=""/>
<text x="58.0" y="588.0" class="tap">LSFT</text>
<text x="58.0" y="612.0" class="hold">sticky</text>
<rect rx="6.0" ry="6.0" x="88.0" y="562.0" width="52.0" height="52.0" class=""/>
<rect rx="6.0" ry="6.0" x="144.0" y="534.0" width="52.0" height="52.0" class=""/>
<rect rx="6.0" ry="6.0" x="200.0" y="520.0" width="52.0" height="52.0" class=""/>
<rect rx="6.0" ry="6.0" x="256.0" y="534.0" width="52.0" height="52.0" class=""/>
<rect rx="6.0" ry="6.0" x="312.0" y="548.0" width="52.0" height="52.0" class=""/>
<text x="338.0" y="574.0" class="tap">[</text>
<rect rx="6.0" ry="6.0" x="368.0" y="576.0" width="52.0" height="52.0" class=""/>
<rect rx="6.0" ry="6.0" x="424.0" y="590.0" width="52.0" height="52.0" class=""/>
<rect rx="6.0" ry="6.0" x="508.0" y="590.0" width="52.0" height="52.0" class=""/>
<rect rx="6.0" ry="6.0" x="564.0" y="576.0" width="52.0" height="52.0" class=""/>
<rect rx="6.0" ry="6.0" x="620.0" y="548.0" width="52.0" height="52.0" class=""/>
<text x="646.0" y="574.0" class="tap">]</text>
<rect rx="6.0" ry="6.0" x="676.0" y="534.0" width="52.0" height="52.0" class=""/>
<rect rx="6.0" ry="6.0" x="732.0" y="520.0" width="52.0" height="52.0" class=""/>
<text x="758.0" y="546.0" class="tap">,</text>
<rect rx="6.0" ry="6.0" x="788.0" y="534.0" width="52.0" height="52.0" class=""/>
<text x="814.0" y="560.0" class="tap">.</text>
<rect rx="6.0" ry="6.0" x="844.0" y="562.0" width="52.0" height="52.0" class=""/>
<text x="870.0" y="588.0" class="tap">/</text>
<rect rx="6.0" ry="6.0" x="900.0" y="562.0" width="52.0" height="52.0" class=""/>
<text x="926.0" y="588.0" class="tap">=</text>
<rect rx="6.0" ry="6.0" x="172.0" y="590.0" width="52.0" height="52.0" class=""/>
<rect rx="6.0" ry="6.0" x="228.0" y="590.0" width="52.0" height="52.0" class=""/>
<rect rx="6.0" ry="6.0" x="284.0" y="604.0" width="52.0" height="52.0" class=""/>
<rect rx="6.0" ry="6.0" x="340.0" y="632.0" width="52.0" height="52.0" class=""/>
<rect rx="6.0" ry="6.0" x="396.0" y="646.0" width="52.0" height="52.0" class=""/>
<text x="422.0" y="672.0" class="tap">TO(0)</text>
<rect rx="6.0" ry="6.0" x="536.0" y="646.0" width="52.0" height="52.0" class="held"/>
<rect rx="6.0" ry="6.0" x="592.0" y="632.0" width="52.0" height="52.0" class=""/>
<rect rx="6.0" ry="6.0" x="648.0" y="604.0" width="52.0" height="52.0" class=""/>
<rect rx="6.0" ry="6.0" x="704.0" y="590.0" width="52.0" height="52.0" class=""/>
<rect rx="6.0" ry="6.0" x="760.0" y="590.0" width="52.0" height="52.0" class=""/>
</g>
<g class="layer-L2">
<text x="30.0" y="728.0" class="label">L2:</text>
<rect rx="6.0" ry="6.0" x="32.0" y="800.0" width="52.0" height="52.0" class=""/>
<text x="58.0" y="826.0" class="tap">TAB</text>
<rect rx="6.0" ry="6.0" x="88.0" y="800.0" width="52.0" height="52.0" class=""/>
<text x="114.0" y="826.0" class="tap">Q</text>
<rect rx="6.0" ry="6.0" x="144.0" y="772.0" width="52.0" height="52.0" class=""/>
<text x="170.0" y="798.0" class="tap">W</text>
<rect rx="6.0" ry="6.0" x="200.0" y="758.0" width="52.0" height="52.0" class=""/>
<text x="226.0" y="784.0" class="tap">E</text>
<rect rx="6.0" ry="6.0" x="256.0" y="772.0" width="52.0" height="52.0" class=""/>
<text x="282.0" y="798.0" class="tap">R</text>
<rect rx="6.0" ry="6.0" x="312.0" y="786.0" width="52.0" height="52.0" class=""/>
<text x="338.0" y="812.0" class="tap">T</text>
<rect rx="6.0" ry="6.0" x="620.0" y="786.0" width="52.0" height="52.0" class=""/>
<text x="646.0" y="812.0" class="tap">LGUI(LEFT)</text>
<rect rx="6.0" ry="6.0" x="676.0" y="772.0" width="52.0" height="52.0" class=""/>
<rect rx="6.0" ry="6.0" x="732.0" y="758.0" width="52.0" height="52.0" class=""/>
<text x="758.0" y="784.0" class="tap">PGUP</text>
<rect rx="6.0" ry="6.0" x="788.0" y="772.0" width="52.0" height="52.0" class=""/>
<text x="814.0" y="798.0" class="tap">LGUI(RIGHT)</text>
<rect rx="6.0" ry="6.0" x="844.0" y="800.0" width="52.0" height="52.0" class=""/>
<rect rx="6.0" ry="6.0" x="900.0" y="800.0" width="52.0" height="52.0" class=""/>
<text x="926.0" y="826.0" class="tap">BSPC</text>
<rect rx="6.0" ry="6.0" x="32.0" y="856.0" width="52.0" height="52.0" class=""/>
<text x="58.0" y="882.0" class="tap">ESC</text>
<rect rx="6.0" ry="6.0" x="88.0" y="856.0" width="52.0" height="52.0" class=""/>
<text x="114.0" y="882.0" class="tap">A</text>
<rect rx="6.0" ry="6.0" x="144.0" y="828.0" width="52.0" height="52.0" class=""/>
<text x="170.0" y="854.0" class="tap">S</text>
<rect rx="6.0" ry="6.0" x="200.0" y="814.0" width="52.0" height="52.0" class=""/>
<text x="226.0" y="840.0" class="tap">D</text>
<rect rx="6.0" ry="6.0" x="256.0" y="828.0" width="52.0" height="52.0" class=""/>
<text x="282.0" y="854.0" class="tap">F</text>
<rect rx="6.0" ry="6.0" x="312.0" y="842.0" width="52.0" height="52.0" class=""/>
<text x="338.0" y="868.0" class="tap">G</text>
<rect rx="6.0" ry="6.0" x="620.0" y="842.0" width="52.0" height="52.0" class=""/>
<text x="646.0" y="868.0" class="tap">LEFT</text>
<rect rx="6.0" ry="6.0" x="676.0" y="828.0" width="52.0" height="52.0" class=""/>
<text x="702.0" y="854.0" class="tap">DOWN</text>
<rect rx="6.0" ry="6.0" x="732.0" y="814.0" width="52.0" height="52.0" class=""/>
<text x="758.0" y="840.0" class="tap">UP</text>
<rect rx="6.0" ry="6.0" x="788.0" y="828.0" width="52.0" height="52.0" class=""/>
<text x="814.0" y="854.0" class="tap">RGHT</text>
<rect rx="6.0" ry="6.0" x="844.0" y="856.0" width="52.0" height="52.0" class=""/>
<rect rx="6.0" ry="6.0" x="900.0" y="856.0" width="52.0" height="52.0" class=""/>
<text x="926.0" y="882.0" class="tap">LSG(4)</text>
<rect rx="6.0" ry="6.0" x="32.0" y="912.0" width="52.0" height="52.0" class=""/>
<text x="58.0" y="938.0" class="tap">LSFT</text>
<text x="58.0" y="962.0" class="hold">sticky</text>
<rect rx="6.0" ry="6.0" x="88.0" y="912.0" width="52.0" height="52.0" class=""/>
<text x="114.0" y="938.0" class="tap">Z</text>
<rect rx="6.0" ry="6.0" x="144.0" y="884.0" width="52.0" height="52.0" class=""/>
<text x="170.0" y="910.0" class="tap">X</text>
<rect rx="6.0" ry="6.0" x="200.0" y="870.0" width="52.0" height="52.0" class=""/>
<text x="226.0" y="896.0" class="tap">C</text>
<rect rx="6.0" ry="6.0" x="256.0" y="884.0" width="52.0" height="52.0" class=""/>
<text x="282.0" y="910.0" class="tap">V</text>
<rect rx="6.0" ry="6.0" x="312.0" y="898.0" width="52.0" height="52.0" class=""/>
<text x="338.0" y="924.0" class="tap">B</text>
<rect rx="6.0" ry="6.0" x="368.0" y="926.0" width="52.0" height="52.0" class=""/>
<rect rx="6.0" ry="6.0" x="424.0" y="940.0" width="52.0" height="52.0" class=""/>
<rect rx="6.0" ry="6.0" x="508.0" y="940.0" width="52.0" height="52.0" class=""/>
<rect rx="6.0" ry="6.0" x="564.0" y="926.0" width="52.0" height="52.0" class=""/>
<rect rx="6.0" ry="6.0" x="620.0" y="898.0" width="52.0" height="52.0" class=""/>
<text x="646.0" y="924.0" class="tap">LSA(LEFT)</text>
<rect rx="6.0" ry="6.0" x="676.0" y="884.0" width="52.0" height="52.0" class=""/>
<rect rx="6.0" ry="6.0" x="732.0" y="870.0" width="52.0" height="52.0" class=""/>
<text x="758.0" y="896.0" class="tap">PGDN</text>
<rect rx="6.0" ry="6.0" x="788.0" y="884.0" width="52.0" height="52.0" class=""/>
<text x="814.0" y="910.0" class="tap">LSA(RIGHT)</text>
<rect rx="6.0" ry="6.0" x="844.0" y="912.0" width="52.0" height="52.0" class=""/>
<text x="870.0" y="938.0" class="tap">MRWD</text>
<rect rx="6.0" ry="6.0" x="900.0" y="912.0" width="52.0" height="52.0" class=""/>
<text x="926.0" y="938.0" class="tap">MFFD</text>
<rect rx="6.0" ry="6.0" x="172.0" y="940.0" width="52.0" height="52.0" class=""/>
<rect rx="6.0" ry="6.0" x="228.0" y="940.0" width="52.0" height="52.0" class=""/>
<rect rx="6.0" ry="6.0" x="284.0" y="954.0" width="52.0" height="52.0" class=""/>
<rect rx="6.0" ry="6.0" x="340.0" y="982.0" width="52.0" height="52.0" class=""/>
<rect rx="6.0" ry="6.0" x="396.0" y="996.0" width="52.0" height="52.0" class="held"/>
<rect rx="6.0" ry="6.0" x="536.0" y="996.0" width="52.0" height="52.0" class=""/>
<text x="562.0" y="1022.0" class="tap">TO(3)</text>
<rect rx="6.0" ry="6.0" x="592.0" y="982.0" width="52.0" height="52.0" class=""/>
<rect rx="6.0" ry="6.0" x="648.0" y="954.0" width="52.0" height="52.0" class=""/>
<rect rx="6.0" ry="6.0" x="704.0" y="940.0" width="52.0" height="52.0" class=""/>
<rect rx="6.0" ry="6.0" x="760.0" y="940.0" width="52.0" height="52.0" class=""/>
</g>
<g class="layer-L3">
<text x="30.0" y="1078.0" class="label">L3:</text>
<rect rx="6.0" ry="6.0" x="32.0" y="1150.0" width="52.0" height="52.0" class=""/>
<rect rx="6.0" ry="6.0" x="88.0" y="1150.0" width="52.0" height="52.0" class=""/>
<rect rx="6.0" ry="6.0" x="144.0" y="1122.0" width="52.0" height="52.0" class=""/>
<rect rx="6.0" ry="6.0" x="200.0" y="1108.0" width="52.0" height="52.0" class=""/>
<rect rx="6.0" ry="6.0" x="256.0" y="1122.0" width="52.0" height="52.0" class=""/>
<rect rx="6.0" ry="6.0" x="312.0" y="1136.0" width="52.0" height="52.0" class=""/>
<rect rx="6.0" ry="6.0" x="620.0" y="1136.0" width="52.0" height="52.0" class=""/>
<text x="646.0" y="1162.0" class="tap">NUM</text>
<rect rx="6.0" ry="6.0" x="676.0" y="1122.0" width="52.0" height="52.0" class=""/>
<text x="702.0" y="1148.0" class="tap">P7</text>
<rect rx="6.0" ry="6.0" x="732.0" y="1108.0" width="52.0" height="52.0" class=""/>
<text x="758.0" y="1134.0" class="tap">P8</text>
<rect rx="6.0" ry="6.0" x="788.0" y="1122.0" width="52.0" height="52.0" class=""/>
<text x="814.0" y="1148.0" class="tap">P9</text>
<rect rx="6.0" ry="6.0" x="844.0" y="1150.0" width="52.0" height="52.0" class=""/>
<text x="870.0" y="1176.0" class="tap">PDOT</text>
<rect rx="6.0" ry="6.0" x="900.0" y="1150.0" width="52.0" height="52.0" class=""/>
<text x="926.0" y="1176.0" class="tap">BSPC</text>
<rect rx="6.0" ry="6.0" x="32.0" y="1206.0" width="52.0" height="52.0" class=""/>
<text x="58.0" y="1232.0" class="tap">
<tspan x="58.0" dy="-0.6em">RGB</tspan><tspan x="58.0" dy="1.2em">VAI</tspan></text>
<rect rx="6.0" ry="6.0" x="88.0" y="1206.0" width="52.0" height="52.0" class=""/>
<text x="114.0" y="1232.0" class="tap">
<tspan x="114.0" dy="-0.6em">RGB</tspan><tspan x="114.0" dy="1.2em">SPI</tspan></text>
<rect rx="6.0" ry="6.0" x="144.0" y="1178.0" width="52.0" height="52.0" class=""/>
<text x="170.0" y="1204.0" class="tap">
<tspan x="170.0" dy="-1.2em">RGB</tspan><tspan x="170.0" dy="1.2em">M</tspan><tspan x="170.0" dy="1.2em">K</tspan></text>
<rect rx="6.0" ry="6.0" x="200.0" y="1164.0" width="52.0" height="52.0" class=""/>
<text x="226.0" y="1190.0" class="tap">
<tspan x="226.0" dy="-0.6em">RGB</tspan><tspan x="226.0" dy="1.2em">HUI</tspan></text>
<rect rx="6.0" ry="6.0" x="256.0" y="1178.0" width="52.0" height="52.0" class=""/>
<text x="282.0" y="1204.0" class="tap">
<tspan x="282.0" dy="-0.6em">RGB</tspan><tspan x="282.0" dy="1.2em">SAI</tspan></text>
<rect rx="6.0" ry="6.0" x="312.0" y="1192.0" width="52.0" height="52.0" class=""/>
<rect rx="6.0" ry="6.0" x="620.0" y="1192.0" width="52.0" height="52.0" class=""/>
<text x="646.0" y="1218.0" class="tap">PENT</text>
<rect rx="6.0" ry="6.0" x="676.0" y="1178.0" width="52.0" height="52.0" class=""/>
<text x="702.0" y="1204.0" class="tap">P4</text>
<rect rx="6.0" ry="6.0" x="732.0" y="1164.0" width="52.0" height="52.0" class=""/>
<text x="758.0" y="1190.0" class="tap">P5</text>
<rect rx="6.0" ry="6.0" x="788.0" y="1178.0" width="52.0" height="52.0" class=""/>
<text x="814.0" y="1204.0" class="tap">P6</text>
<rect rx="6.0" ry="6.0" x="844.0" y="1206.0" width="52.0" height="52.0" class=""/>
<text x="870.0" y="1232.0" class="tap">PMNS</text>
<rect rx="6.0" ry="6.0" x="900.0" y="1206.0" width="52.0" height="52.0" class=""/>
<text x="926.0" y="1232.0" class="tap">PSLS</text>
<rect rx="6.0" ry="6.0" x="32.0" y="1262.0" width="52.0" height="52.0" class=""/>
<text x="58.0" y="1288.0" class="tap">
<tspan x="58.0" dy="-0.6em">RGB</tspan><tspan x="58.0" dy="1.2em">VAD</tspan></text>
<rect rx="6.0" ry="6.0" x="88.0" y="1262.0" width="52.0" height="52.0" class=""/>
<text x="114.0" y="1288.0" class="tap">
<tspan x="114.0" dy="-0.6em">RGB</tspan><tspan x="114.0" dy="1.2em">SPD</tspan></text>
<rect rx="6.0" ry="6.0" x="144.0" y="1234.0" width="52.0" height="52.0" class=""/>
<text x="170.0" y="1260.0" class="tap">
<tspan x="170.0" dy="-1.2em">RGB</tspan><tspan x="170.0" dy="1.2em">M</tspan><tspan x="170.0" dy="1.2em">B</tspan></text>
<rect rx="6.0" ry="6.0" x="200.0" y="1220.0" width="52.0" height="52.0" class=""/>
<text x="226.0" y="1246.0" class="tap">
<tspan x="226.0" dy="-0.6em">RGB</tspan><tspan x="226.0" dy="1.2em">HUD</tspan></text>
<rect rx="6.0" ry="6.0" x="256.0" y="1234.0" width="52.0" height="52.0" class=""/>
<text x="282.0" y="1260.0" class="tap">
<tspan x="282.0" dy="-0.6em">RGB</tspan><tspan x="282.0" dy="1.2em">SAD</tspan></text>
<rect rx="6.0" ry="6.0" x="312.0" y="1248.0" width="52.0" height="52.0" class=""/>
<rect rx="6.0" ry="6.0" x="368.0" y="1276.0" width="52.0" height="52.0" class=""/>
<rect rx="6.0" ry="6.0" x="424.0" y="1290.0" width="52.0" height="52.0" class=""/>
<rect rx="6.0" ry="6.0" x="508.0" y="1290.0" width="52.0" height="52.0" class=""/>
<rect rx="6.0" ry="6.0" x="564.0" y="1276.0" width="52.0" height="52.0" class=""/>
<rect rx="6.0" ry="6.0" x="620.0" y="1248.0" width="52.0" height="52.0" class=""/>
<text x="646.0" y="1274.0" class="tap">PEQL</text>
<rect rx="6.0" ry="6.0" x="676.0" y="1234.0" width="52.0" height="52.0" class=""/>
<text x="702.0" y="1260.0" class="tap">P1</text>
<rect rx="6.0" ry="6.0" x="732.0" y="1220.0" width="52.0" height="52.0" class=""/>
<text x="758.0" y="1246.0" class="tap">P2</text>
<rect rx="6.0" ry="6.0" x="788.0" y="1234.0" width="52.0" height="52.0" class=""/>
<text x="814.0" y="1260.0" class="tap">P3</text>
<rect rx="6.0" ry="6.0" x="844.0" y="1262.0" width="52.0" height="52.0" class=""/>
<text x="870.0" y="1288.0" class="tap">PPLS</text>
<rect rx="6.0" ry="6.0" x="900.0" y="1262.0" width="52.0" height="52.0" class=""/>
<text x="926.0" y="1288.0" class="tap">PAST</text>
<rect rx="6.0" ry="6.0" x="172.0" y="1290.0" width="52.0" height="52.0" class=""/>
<rect rx="6.0" ry="6.0" x="228.0" y="1290.0" width="52.0" height="52.0" class=""/>
<text x="254.0" y="1316.0" class="tap">
<tspan x="254.0" dy="-0.6em">RGB</tspan><tspan x="254.0" dy="1.2em">TOG</tspan></text>
<rect rx="6.0" ry="6.0" x="284.0" y="1304.0" width="52.0" height="52.0" class=""/>
<rect rx="6.0" ry="6.0" x="340.0" y="1332.0" width="52.0" height="52.0" class=""/>
<rect rx="6.0" ry="6.0" x="396.0" y="1346.0" width="52.0" height="52.0" class=""/>
<text x="422.0" y="1372.0" class="tap">TO(0)</text>
<rect rx="6.0" ry="6.0" x="536.0" y="1346.0" width="52.0" height="52.0" class=""/>
<text x="562.0" y="1372.0" class="tap">TO(3)</text>
<rect rx="6.0" ry="6.0" x="592.0" y="1332.0" width="52.0" height="52.0" class=""/>
<rect rx="6.0" ry="6.0" x="648.0" y="1304.0" width="52.0" height="52.0" class=""/>
<rect rx="6.0" ry="6.0" x="704.0" y="1290.0" width="52.0" height="52.0" class=""/>
<text x="730.0" y="1316.0" class="tap">P0</text>
<rect rx="6.0" ry="6.0" x="760.0" y="1290.0" width="52.0" height="52.0" class=""/>
</g>
</svg>
